<svg xmlns="http://www.w3.org/2000/svg" viewBox="0 0 200 40" width="200" height="40">
  <defs>
    <style>
      .cls-1 { fill: #a100ff; }
    </style>
  </defs>
  <!-- Accenture ">" symbol -->
  <polygon class="cls-1" points="3,8 15,20 3,32 7,32 19,20 7,8" />
  
  <!-- Accenture text -->
  <g class="cls-1">
    <!-- A -->
    <path d="M32,30 L28,30 L29.5,26 L36.5,26 L38,30 L42,30 L35,14 L31,14 Z M33,14 L35.5,22 L30.5,22 Z"/>
    
    <!-- c -->
    <path d="M48,18 C45,18 43,20 43,24 C43,28 45,30 48,30 C50,30 51.5,29 52,27 L49,27 C48.5,27.5 48,28 47.5,28 C46,28 45,27 45,24 C45,21 46,20 47.5,20 C48,20 48.5,20.5 49,21 L52,21 C51.5,19 50,18 48,18 Z"/>
    
    <!-- c -->
    <path d="M58,18 C55,18 53,20 53,24 C53,28 55,30 58,30 C60,30 61.5,29 62,27 L59,27 C58.5,27.5 58,28 57.5,28 C56,28 55,27 55,24 C55,21 56,20 57.5,20 C58,20 58.5,20.5 59,21 L62,21 C61.5,19 60,18 58,18 Z"/>
    
    <!-- e -->
    <path d="M67,18 C64,18 62,20 62,24 C62,28 64,30 67,30 C69.5,30 71.5,28.5 71.5,26 L69,26 C69,27 68,28 67,28 C65.5,28 64.5,27 64.5,25 L72,25 C72,20 70,18 67,18 Z M67,20 C68.5,20 69,21 69,23 L64.5,23 C64.5,21 65.5,20 67,20 Z"/>
    
    <!-- n -->
    <path d="M74,18 L74,30 L76,30 L76,24 C76,21 77,20 79,20 C80.5,20 81,21 81,23 L81,30 L83,30 L83,23 C83,19.5 81.5,18 79,18 C77,18 76,19 75.5,20 L75.5,18 Z"/>
    
    <!-- t -->
    <path d="M86,16 L86,18 L84,18 L84,20 L86,20 L86,27 C86,29.5 87,30 89,30 L90,30 L90,28 L89,28 C88,28 88,27.5 88,27 L88,20 L90,20 L90,18 L88,18 L88,16 Z"/>
    
    <!-- u -->
    <path d="M92,18 L92,30 L94,30 L94,24 C94,21 95,20 97,20 C98.5,20 99,21 99,23 L99,30 L101,30 L101,23 C101,19.5 99.5,18 97,18 C95,18 94,19 93.5,20 L93.5,18 Z"/>
    
    <!-- r -->
    <path d="M104,18 L104,20 C104.5,19 105.5,18 107,18 L107,20 C105,20 104,21 104,24 L104,30 L106,30 L106,18 Z"/>
    
    <!-- e -->
    <path d="M111,18 C108,18 106,20 106,24 C106,28 108,30 111,30 C113.5,30 115.5,28.5 115.5,26 L113,26 C113,27 112,28 111,28 C109.5,28 108.5,27 108.5,25 L116,25 C116,20 114,18 111,18 Z M111,20 C112.5,20 113,21 113,23 L108.5,23 C108.5,21 109.5,20 111,20 Z"/>
  </g>
</svg>
